/* XPM */
static char *dummy[]={
"32 32 505 2",
"Qt c None",
"cE c #000000",
"e. c #000000",
".1 c #000000",
"bN c #000000",
"f2 c #010101",
".o c #010101",
"#o c #020202",
"a. c #020202",
"fQ c #020403",
"aq c #020202",
".i c #020202",
"cU c #030403",
"fG c #030504",
"#P c #020202",
".y c #030302",
".M c #030303",
".p c #030303",
".L c #030303",
".2 c #050505",
"#A c #060606",
"c9 c #070908",
"e5 c #060606",
"#d c #080807",
"#C c #080808",
"#B c #080808",
".c c #090908",
"#Q c #090909",
".b c #090909",
"b. c #0b100e",
"bM c #0c120f",
"bp c #0d1411",
"#p c #0b0b0b",
".z c #0c0c0b",
"cV c #0c0c0c",
".# c #0c0c0c",
"fj c #0f110f",
".a c #0e0e0d",
"fP c #0f1714",
"fL c #121614",
"f1 c #121a15",
"fY c #141d18",
"fX c #151e1a",
"fZ c #151f1a",
"fN c #16201b",
"fO c #17211c",
"f0 c #18221d",
"fM c #1b2620",
"b8 c #0e0e0e",
"#9 c #0f1411",
"aY c #0f1412",
"aK c #0f1513",
"az c #101814",
"ap c #131c17",
"fH c #0f100f",
".d c #0f0f0e",
"cD c #0f100f",
".q c #131613",
"d. c #101110",
"#z c #111311",
"er c #111110",
".K c #111111",
".0 c #131413",
"fR c #141615",
".x c #151614",
"e# c #151615",
"b# c #191c1a",
"#c c #171817",
"fK c #2c3f35",
".A c #2d372d",
"fw c #1f2924",
"#T c #1f2321",
"e4 c #202421",
"dq c #222c27",
"eI c #232c27",
"bq c #242624",
"d9 c #253830",
"dO c #263830",
"eq c #2c3f35",
".j c #1d1d1c",
"bO c #2f312f",
"fv c #25352e",
".N c #2b322b",
"#O c #304135",
"ck c #252926",
"b7 c #25372f",
"fk c #2a312d",
".r c #313c34",
"#e c #374437",
".3 c #3f5040",
".Z c #2f3930",
"e6 c #292f2a",
".h c #2d3830",
"#n c #333f36",
"#R c #546e61",
".g c #313e35",
"a9 c #406850",
"bL c #426c53",
".O c #688b68",
"#D c #44614c",
"a# c #50675b",
"fW c #416351",
"cC c #455b4e",
".J c #38453a",
"#q c #668868",
"cW c #3b5046",
"fx c #3c4b43",
".e c #5d7d61",
".n c #466352",
"bo c #48765b",
".w c #4c6a57",
"d0 c #2e453b",
"d# c #2f4037",
"dU c #324a3f",
"c6 c #334f41",
"du c #344d41",
"d1 c #344e43",
"b6 c #354b40",
"fq c #37433c",
"dt c #395347",
"fI c #3c4e43",
"fC c #3d594b",
"dZ c #3d5b4c",
"fS c #3e5347",
"f. c #3e5c4f",
"bI c #3e5d4b",
"c7 c #415f51",
"dP c #43544a",
".f c #435a4e",
"f# c #436855",
"cT c #445b4f",
"dm c #446455",
"dG c #446556",
"bJ c #446953",
"eP c #456757",
"fs c #456758",
"cl c #466151",
"dV c #466154",
"dn c #466454",
"dT c #466658",
"eJ c #466a53",
"dF c #476756",
"fa c #486c5c",
"c5 c #496a5b",
"dY c #49715d",
"bn c #49785d",
"#U c #4a6551",
"e9 c #4a6959",
"#b c #4b644f",
"dw c #4b6a59",
"dz c #4b6f5d",
"#S c #4d6558",
"fJ c #4d6d5c",
"fr c #4d6e5d",
"fc c #4d7260",
"fT c #4e6e5c",
"fU c #4f6f5e",
"cQ c #4f7361",
"fu c #4f7563",
"dr c #50675b",
"dv c #507461",
"a7 c #507f61",
"aT c #51735b",
"en c #517562",
"fE c #517766",
".l c #517a63",
"ft c #527765",
"d2 c #527b68",
"bK c #528968",
"dx c #537462",
"c4 c #537864",
"dl c #538068",
"aX c #538268",
"e0 c #547865",
"dW c #547b6a",
"dX c #547c6a",
"fD c #547d6a",
"a6 c #557764",
"dH c #557c6a",
"bm c #567965",
"dy c #567966",
"dk c #567e6c",
"fe c #56836a",
"ar c #577164",
"ds c #577a67",
"fb c #57876e",
"da c #597f6d",
"bt c #59826d",
"e3 c #598d6e",
"a0 c #59906e",
".B c #5a735a",
"a8 c #5a9871",
"d3 c #5b8673",
"bd c #5b876e",
"eK c #5b9471",
"aQ c #5b9972",
"#8 c #5c7f62",
"ai c #5c7f69",
"fV c #5c806c",
"ff c #5c8974",
"eo c #5d8672",
"dh c #5d8673",
"el c #5d8f72",
"es c #5e8170",
"ae c #5e836c",
"fF c #5e8571",
"be c #5e9c75",
"#Z c #5f866a",
"d6 c #5f8874",
"dj c #5f8875",
"aJ c #5f8c76",
"aV c #5f9677",
".I c #608264",
".Y c #608265",
"e7 c #608e76",
"fi c #609073",
"eQ c #60907a",
"#y c #618767",
"#5 c #618771",
"fp c #618872",
"b9 c #618a73",
"#X c #638a69",
"c8 c #638a75",
"aW c #639f7d",
"aP c #63a27b",
"b5 c #648b78",
"db c #648e7a",
"a1 c #64a37d",
"#0 c #658c6c",
"dS c #658f72",
"di c #658f7a",
"eX c #65917a",
"em c #659f7d",
"eF c #67907a",
"eD c #67927c",
"ev c #679881",
"dE c #679d81",
"#Y c #68906d",
"dc c #68967f",
"eV c #689882",
"ba c #698f7b",
"cM c #69937d",
"ay c #69987a",
"aU c #69997c",
"dD c #699983",
"ee c #699e86",
"aH c #6a987b",
"ed c #6a9d86",
"ef c #6a9e86",
"eE c #6a9f84",
"bw c #6aa884",
"eg c #6ca28a",
".s c #6d9778",
"ad c #6d9881",
"d8 c #6d9f88",
"bb c #6e9781",
"cH c #6e9b84",
"eR c #6ea88c",
"aj c #6f9a80",
"cL c #6f9d86",
"eh c #6fa68d",
"cF c #709a86",
"bW c #71a38a",
"ew c #71aa90",
"b4 c #72a98d",
"ex c #72ab91",
"c. c #734f4d",
"#m c #739e77",
"bA c #739f88",
"dC c #73a38b",
"eS c #73ac92",
".u c #74a27d",
"cP c #74ab8e",
"eT c #74ae94",
"#W c #75a37a",
"aS c #75a48b",
"eO c #75a58d",
"#x c #75a784",
"ey c #75ae94",
"cj c #76a08b",
"#3 c #76a58b",
"#4 c #76a68c",
"dp c #76a78f",
"bi c #779c87",
".C c #77a178",
"e1 c #77b097",
"aO c #77b792",
"bB c #784f50",
"ao c #78a87e",
".k c #78aa7f",
"ec c #78ae91",
"d7 c #78ae96",
"ax c #79a981",
"av c #79a990",
"dB c #79ab92",
"fl c #7aaa91",
"bj c #7aab88",
"dL c #7ab394",
"ez c #7ab49a",
"cb c #7aba95",
"aF c #7bac92",
"eG c #7bb49a",
"ci c #7bb797",
"aw c #7cac81",
"fy c #7cad94",
"eU c #7cb69c",
"dg c #7cb898",
"an c #7dae82",
"d4 c #7db299",
"#u c #7db486",
"bx c #7dbd9a",
".t c #7eb085",
"am c #7eb095",
"cI c #7eb096",
"aZ c #7eb397",
"dA c #7eb499",
"ei c #7eb99f",
"aR c #7ebc9c",
"ea c #7faf98",
".m c #7fb389",
"eH c #7fb399",
"cG c #7fb59b",
"c3 c #7fb69c",
"#h c #80b387",
"eW c #80b399",
"## c #80bb8f",
"dN c #80bba0",
"eA c #80bba1",
"dI c #81b79d",
"e2 c #81b99e",
"ek c #81b99f",
"fg c #81bb99",
"ep c #81bba1",
"cB c #81bca0",
"et c #82b79d",
"fB c #82bc9e",
".F c #82bf8c",
"cx c #837e74",
"cy c #83998e",
"dR c #83b79c",
".7 c #83bf8c",
"#6 c #84b686",
"af c #84b99c",
"fz c #84ba9f",
"cA c #84be9f",
"cz c #85aa98",
"ct c #85b294",
"#1 c #85b887",
"cN c #85bba0",
"cR c #85c2a1",
"fo c #86bba0",
"fA c #86bca1",
"#a c #86be8c",
"eY c #86bea2",
".X c #87bb8b",
"cK c #87c2a6",
".v c #88bd8e",
"c2 c #88c0a5",
"#G c #88c396",
"bZ c #898177",
".P c #89bc8b",
".E c #89be8e",
"d5 c #89c0a5",
"cX c #89c1a5",
"do c #89c1a6",
"aI c #89c395",
"dd c #89c59e",
"cZ c #89c5a6",
"df c #89c5a9",
"#l c #8ac18f",
"eB c #8ac5a0",
"#K c #8bc18e",
"#f c #8bc18f",
"#N c #8bc390",
"#k c #8bc391",
"cS c #8bc3a7",
"fh c #8bc7a7",
"#J c #8cc28f",
"fn c #8cc4a8",
"#I c #8dc490",
"ac c #8dc4a9",
"dQ c #8dc5a9",
"eZ c #8dc6aa",
"fm c #8ec6aa",
"#V c #8ec792",
"#E c #8ec793",
"dJ c #8ec7ab",
"aG c #8ec896",
"eu c #8ec9a5",
"bf c #8ecfab",
"ah c #8fc8aa",
"bF c #8fc8ab",
"eL c #8fcba2",
"dK c #8fcbac",
"bH c #90cbae",
"dM c #90ccaf",
"aD c #90d2ae",
"#2 c #91c892",
".4 c #91cb95",
"bg c #91ceae",
".S c #92cb96",
"#i c #92cc97",
"#M c #92cc98",
"ch c #92cea9",
"ej c #92ceac",
"fd c #92ceb0",
"#r c #93cd97",
"ab c #93ceb1",
"#v c #93cf98",
"c1 c #93cfb2",
"b3 c #93d0b2",
"ce c #94454d",
"bR c #948a7d",
"#s c #94cf98",
"cp c #94d2b4",
"#7 c #95cf98",
"#F c #95d098",
"cY c #95d0b3",
"aa c #95d1b3",
"c0 c #95d2b4",
"#g c #96d099",
"bv c #96d8b5",
"co c #977f77",
"bh c #978c80",
"eC c #97d3b1",
"eb c #97d4b4",
"de c #97d4b5",
"cO c #97d4b6",
"#H c #97d59e",
"e8 c #97d5b6",
"aC c #97d9b6",
".D c #98d39a",
".R c #98d49a",
"as c #98d5b7",
"bY c #98d7b8",
"cc c #98dab7",
"a2 c #98dbb8",
"#L c #99d39a",
".H c #99d49a",
"#j c #99d59b",
"aL c #99d6b8",
"aA c #99d7b9",
"bu c #99d8b7",
"eN c #9ad9ba",
"bX c #9adaba",
"a3 c #9adbbb",
"bT c #9adcb9",
"cm c #9b9085",
".5 c #9bd69c",
"ag c #9bd9b9",
"cJ c #9bd9ba",
".6 c #9cd79d",
"bz c #9cdbbb",
"at c #9cdbbc",
"a5 c #9cdcbc",
"bV c #9cddbd",
"#t c #9dd89d",
"#. c #9dda9f",
".Q c #9eda9e",
".W c #9edca0",
".T c #9edda1",
"a4 c #9edfbe",
"by c #9edfbf",
"cd c #9fd5b7",
".G c #9fdb9f",
"#w c #9fdda0",
"bl c #9fe0bf",
".9 c #a0dea1",
".V c #a0dea2",
".U c #a0dfa2",
"al c #a0e0c0",
"aN c #a0e1c0",
"eM c #a0e1c1",
"aE c #a0e3c1",
".8 c #a1e0a3",
"cq c #a1e1c1",
"bG c #a2e3c2",
"bS c #a2e5c3",
"aM c #a3e5c3",
"aB c #a3e5c4",
"bU c #a4e6c4",
"cr c #a4e6c5",
"bc c #a4e7c5",
"bk c #a5e7c5",
"cs c #a5e7c6",
"ak c #a5e8c6",
"au c #a6e9c7",
"ca c #a78982",
"br c #a98e85",
"bE c #afb7b2",
"cg c #b4deca",
"bs c #b85861",
"cu c #b9555f",
"cw c #bd5a63",
"cv c #c06c75",
"cn c #c16e76",
"bC c #c6525f",
"b1 c #cd6c77",
"bD c #d17983",
"b0 c #d49aa1",
"bQ c #d69ba2",
"bP c #dbaaaf",
"c# c #e4bbc0",
"b2 c #eedfe1",
"cf c #f6f5f6",
"QtQtQtQtQtQtQtQtQtQtQtQtQtQtQtQtQt.#.a.b.cQtQtQtQtQtQtQtQtQtQtQt",
"QtQtQtQtQtQtQtQtQtQtQtQtQtQtQtQt.d.e.f.g.hQtQtQtQtQtQtQtQtQtQtQt",
"QtQtQtQtQtQtQtQtQtQtQtQtQtQtQt.i.j.k.l.m.nQtQtQtQtQtQtQtQtQtQtQt",
"QtQtQtQtQtQtQtQtQtQtQtQt.o.p.q.r.s.t.u.v.w.x.yQtQtQtQtQtQtQtQtQt",
"QtQtQtQtQtQtQtQtQtQtQt.z.A.B.C.D.E.F.G.G.H.I.J.K.LQtQtQtQtQtQtQt",
"QtQtQtQtQtQtQtQtQt.M.N.O.P.Q.G.R.S.T.U.V.V.W.X.Y.Z.0.1QtQtQtQtQt",
"QtQtQtQtQtQtQtQt.2.3.4.5.G.G.6.7.V.8.8.8.8.9#.###a#b#c#dQtQtQtQt",
"QtQtQtQtQtQtQtQt#e#f#g.Q.G.9#h#i.8.8.8.8.8.U.U#j#k#l#m#n#oQtQtQt",
"QtQtQtQtQtQtQt#p#q#r#s#t.G.9#u#v.9.U.8.8.9#w#w.G#x#r#r#y#zQtQtQt",
"QtQtQtQt#A#B#C#D#E#r#F.6.G.G#G#H.9.V.V#I#J#K#L.G#M#r#r#N#O#PQtQt",
"QtQtQt#Q#R#S#T#U#V#W#X#X#Y#Y#Z#0#1#2#Y#3#4#5#6.G#7#r#r#r#8#9QtQt",
"QtQta.a#aaabacadaeafagagagagagahaiajagakalaman.D#r#r#r#raoapQtQt",
"QtQtaqarasasasatakauauauauauauauauauauauakavaw#rax#r#r#rayazQtQt",
"QtQtaqarasaAaBakauauauaCaDaEauauauauauauakaFawaGaHaIaIaIaJaKQtQt",
"QtQtaqaraLaMauauauaNaOaPaQaRauauauauauauakaSaTaUaVaWaWaWaXaYQtQt",
"QtQtaqaraAauauauaZa0aQaQa1a2auauaua3a4akaka5a6a7a8aQaQaQa9b.QtQt",
"QtQtb#babbbcakaubdaQaQbeaCakbfbgbhbibjbkblasbmbna8aQa8bobpQtQtQt",
"QtQtbqbrbsbtbubvbvbwbxbyaubzbAbBbCbDbEbFbGasbHbIbJbKbLbMQtQtQtQt",
"QtbNbObPbQbRbSbTbUbVbWbXaubYbZb0bCb1b2baaLasb3b4b5b6b7QtQtQtQtQt",
"Qtb8b9c.c#caaNalakaucbccaucdcec#bCbDcfcgasaschciascjckQtQtQtQtQt",
"Qtb8clcmcncocpascqbGbccrcsctcucvcwcxcyczasascAcBasascCcDcEQtQtQt",
"Qtb8cFcGcHcIasasasatasascJcKcLcMcNasasascOcPcQcRasascScTcUQtQtQt",
"QtcVcWcXcYasascZc0asc0asasasasc1cXc2c3c4c5c6c7asasasasc8c9QtQtQt",
"QtQtd.d#dadbdcdddeasdfdgdbdbdbdhdidjdkdldmdndoasasasasdpdqQtQtQt",
"QtQtaqdrdsdtdudvdwdxdydzdAdBdCdDdEdFdGdHdIdJasasdKdLdMdNdOQtQtQt",
"QtQtaqdPdQdRdSdTdUdVdWdXdYdZd0d1d2d3d4cOasasasasd5d6d7d8d9QtQtQt",
"QtQte.e#eaasebbHecedeeeeeeefegeheiejebasekelemasd5eneoepeqQtQtQt",
"QtQtQteresetasaseuevewexeyezeAeAeAeBeCaseDaQeEaseFdGeGeHeIQtQtQt",
"QtQtQtereJeKeLeMeNeOePeQeReSeSeTeUeVeWaLbzeXeYeZe0e1e2e3e4QtQtQt",
"QtQtQte5e6e7e8auatase9f.f#fafafafbfcasbzauaNfdfefffgfhfifjQtQtQt",
"QtQtQtQtfkflfmfnfofpfqfrfsftfufvfwfxfyfzfAasfBfCfDfEfFa6fGQtQtQt",
"QtQtQtQtfHfIa6dxfJfKfLfMfNfOfPfQQtfRfSfTfUfVfWfXfYfZf0f1f2QtQtQt"};
